<svg width="20" height="20" viewBox="0 0 20 20" fill="none" xmlns="http://www.w3.org/2000/svg">
<g clip-path="url(#clip0_1_1829)">
<path d="M20.0009 10.0616C20.0009 4.50415 15.5234 -0.000854492 10.0009 -0.000854492C4.47585 0.000395508 -0.00164795 4.50415 -0.00164795 10.0629C-0.00164795 15.0841 3.65585 19.2466 8.43585 20.0016V12.9704H5.89835V10.0629H8.43835V7.84415C8.43835 5.3229 9.9321 3.9304 12.2159 3.9304C13.3109 3.9304 14.4546 4.12665 14.4546 4.12665V6.60165H13.1934C11.9521 6.60165 11.5646 7.3779 11.5646 8.17415V10.0616H14.3371L13.8946 12.9691H11.5634V20.0004C16.3434 19.2454 20.0009 15.0829 20.0009 10.0616Z" fill="#131316"/>
</g>
<defs>
<clipPath id="clip0_1_1829">
<rect width="20" height="20" fill="white"/>
</clipPath>
</defs>
</svg>
