<svg width="48" height="48" viewBox="0 0 48 48" fill="none" xmlns="http://www.w3.org/2000/svg">
<g clip-path="url(#clip0_1_1807)">
<path d="M24 1C36.7026 1 47 11.2974 47 24C47 36.7026 36.7026 47 24 47C11.2974 47 1 36.7026 1 24C1 11.2974 11.2974 1 24 1Z" fill="#1A82FF" stroke="#0E0637" stroke-width="2"/>
<path d="M32.7743 33.8825C30.6965 36.4279 27.7745 37.7005 24.0081 37.7005C20.2417 37.7005 17.3192 36.4279 15.2405 33.8825C13.1615 31.3357 12.1224 28.0439 12.1233 24.0068C12.1242 19.9698 13.1628 16.6784 15.2392 14.1325C17.3169 11.5858 20.2394 10.3127 24.0067 10.3131C27.774 10.3136 30.6961 11.5867 32.7729 14.1325C34.8506 16.6779 35.8897 19.9693 35.8901 24.0068C35.8906 28.0443 34.852 31.3362 32.7743 33.8825Z" fill="white"/>
<path d="M23.9644 32.3781C24.9559 32.3781 25.7989 32.1079 26.4933 31.5676C27.1877 31.0272 27.6906 30.2944 28.0019 29.3692C28.3127 28.4434 28.5322 27.5561 28.6602 26.7072C28.7882 25.8583 28.8517 24.9582 28.8508 24.0069C28.8508 22.8357 28.7799 21.7874 28.6382 20.8622L20.0956 29.7641C20.8855 31.5058 22.1751 32.3772 23.9644 32.3781Z" fill="#1A82FF"/>
<path d="M24.0494 15.6356C23.0578 15.6356 22.2149 15.9058 21.5205 16.4461C20.8261 16.9864 20.3232 17.7192 20.0119 18.6445C19.6992 19.5702 19.4798 20.4574 19.3536 21.3063C19.2256 22.1552 19.1621 23.0553 19.163 24.0066C19.163 24.6333 19.1831 25.2249 19.2233 25.7812L27.371 17.2923C26.5797 16.1883 25.4725 15.6361 24.0494 15.6356V15.6356Z" fill="#1A82FF"/>
<path d="M12.7872 32.4933L11.738 31.4867L19.6937 23.1936L20.7428 24.2003L12.7872 32.4933ZM27.7769 23.8396L26.7278 22.8329L34.6834 14.5399L35.7326 15.5465L27.7769 23.8396Z" fill="#1A82FF"/>
</g>
<defs>
<clipPath id="clip0_1_1807">
<rect width="48" height="48" fill="white"/>
</clipPath>
</defs>
</svg>
