<svg width="50" height="50" viewBox="0 0 50 50" fill="none" xmlns="http://www.w3.org/2000/svg">
<path opacity="0.2" d="M25 49C38.2548 49 49 38.2548 49 25C49 11.7452 38.2548 1 25 1C11.7452 1 1 11.7452 1 25C1 38.2548 11.7452 49 25 49Z" fill="#E2BD23"/>
<path d="M25 49C38.2548 49 49 38.2548 49 25C49 11.7452 38.2548 1 25 1C11.7452 1 1 11.7452 1 25C1 38.2548 11.7452 49 25 49Z" fill="#F0C30B" stroke="#0E0637" stroke-width="2"/>
<mask id="mask0_1_1806" style="mask-type:alpha" maskUnits="userSpaceOnUse" x="1" y="1" width="48" height="48">
<path d="M25 49C38.2548 49 49 38.2548 49 25C49 11.7452 38.2548 1 25 1C11.7452 1 1 11.7452 1 25C1 38.2548 11.7452 49 25 49Z" fill="white"/>
</mask>
<g mask="url(#mask0_1_1806)">
<path fill-rule="evenodd" clip-rule="evenodd" d="M25.397 15.3737H18.8441V24.077H14.8462V26.9781H18.8441V35.6814H25.397C28.8559 35.6814 29.6012 35.3191 31.0918 34.5947C31.2075 34.5384 31.3277 34.48 31.454 34.4194C33.2075 33.578 34.5702 32.3934 35.5421 30.8655C36.514 29.3376 37 27.5583 37 25.5275C37 23.4967 36.514 21.7174 35.5421 20.1895C34.5702 18.6616 33.2075 17.477 31.454 16.6356C29.7005 15.7943 27.6816 15.3737 25.397 15.3737ZM23.7137 26.9781V31.8229H25.1566C27.2607 31.8229 28.939 31.2572 30.1915 30.1257C31.444 28.9943 32.0702 27.4616 32.0702 25.5275C32.0702 23.5934 31.444 22.0607 30.1915 20.9293C28.939 19.7978 27.2607 19.2321 25.1566 19.2321H23.7137V24.077H28.3729V26.9781H23.7137Z" fill="white"/>
</g>
</svg>
