<svg width="48" height="48" viewBox="0 0 48 48" fill="none" xmlns="http://www.w3.org/2000/svg">
<g clip-path="url(#clip0_1_1805)">
<path d="M18.4388 46.3108L18.4385 46.3107C6.11019 43.2377 -1.38365 30.748 1.68938 18.4384L1.68947 18.4381C4.76249 6.11005 17.2341 -1.38378 29.5627 1.68947L29.5637 1.68972C41.8721 4.74429 49.3852 17.2335 46.3119 29.5621L47.2398 29.7934L46.3118 29.5621C43.2389 41.89 30.7486 49.3839 18.4388 46.3108Z" fill="url(#paint0_linear_1_1805)" stroke="#0E0637" stroke-width="2"/>
<path d="M35.4273 21.0094C35.896 17.8219 33.4773 16.0969 30.1398 14.9531L31.2273 10.6219L28.6023 9.9656L27.5523 14.1844C26.8585 14.0156 26.146 13.8469 25.4335 13.6969L26.4835 9.45935L23.8585 8.8031L22.7898 13.1156C22.2085 12.9844 21.646 12.8531 21.1023 12.7219V12.7031L17.4648 11.8031L16.771 14.6156C16.771 14.6156 18.721 15.0656 18.6835 15.0844C19.7523 15.3469 19.9398 16.0594 19.9023 16.6219L18.6648 21.5531C18.7398 21.5719 18.8335 21.5906 18.946 21.6469C18.8523 21.6281 18.7585 21.6094 18.6648 21.5719L16.9398 28.4719C16.8085 28.7906 16.471 29.2781 15.7398 29.0906C15.7585 29.1281 13.8273 28.6219 13.8273 28.6219L12.5148 31.6406L15.946 32.5031C16.5835 32.6719 17.2023 32.8219 17.821 32.9906L16.7335 37.3594L19.3585 38.0156L20.446 33.6844C21.1585 33.8719 21.871 34.0594 22.546 34.2281L21.4773 38.5406L24.1023 39.1969L25.1898 34.8281C29.6898 35.6719 33.0648 35.3344 34.471 31.2656C35.6148 28.0031 34.4148 26.1094 32.0523 24.8719C33.796 24.4781 35.0898 23.3344 35.4273 21.0094ZM29.4085 29.4469C28.6023 32.7094 23.0898 30.9469 21.3085 30.4969L22.7523 24.7031C24.5335 25.1531 30.271 26.0344 29.4085 29.4469ZM30.2335 20.9531C29.4835 23.9344 24.9085 22.4156 23.4273 22.0406L24.7398 16.7906C26.221 17.1656 31.0023 17.8594 30.2335 20.9531Z" fill="white"/>
</g>
<defs>
<linearGradient id="paint0_linear_1_1805" x1="23.9871" y1="-0.0113979" x2="23.9871" y2="47.9953" gradientUnits="userSpaceOnUse">
<stop stop-color="#F9AA4B"/>
<stop offset="1" stop-color="#F7931A"/>
</linearGradient>
<clipPath id="clip0_1_1805">
<rect width="48" height="48" fill="white"/>
</clipPath>
</defs>
</svg>
