<svg width="50" height="50" viewBox="0 0 50 50" fill="none" xmlns="http://www.w3.org/2000/svg">
<circle cx="25" cy="25" r="24" fill="#00DCFA" stroke="#0E0637" stroke-width="2"/>
<path fill-rule="evenodd" clip-rule="evenodd" d="M18.8739 18.8724C19.4972 13.091 24.4575 8.59998 30.2977 8.59998C36.6491 8.60414 41.7967 13.7524 41.8 20.1038C41.8 25.9424 37.309 30.9028 31.5261 31.5276C30.9225 37.3089 25.9425 41.8 20.1023 41.8C13.7509 41.7958 8.60334 36.6476 8.60001 30.2962C8.60001 24.4575 13.0896 19.4971 18.8739 18.8724ZM31.6046 28.8912C35.4765 28.3018 38.5153 25.263 39.1048 21.391H31.6046V28.8912ZM11.2952 29.0089L11.2982 28.9893H18.7954V21.4891C14.9239 22.0798 11.8871 25.1191 11.2982 28.9893H11.2952V29.0089ZM28.9106 31.6061L28.9109 31.6046V31.6061H28.9106ZM28.9106 31.6061C28.2659 35.9729 24.5166 39.2066 20.1023 39.2028C15.6883 39.2066 11.9393 35.9728 11.2952 31.6061H28.9106ZM29.009 21.391V28.9893H21.3911V21.391H29.009ZM21.4891 18.7954H39.1048V18.7939C38.4607 14.4271 34.7117 11.1933 30.2977 11.1971C25.8829 11.1933 22.1332 14.4278 21.4891 18.7954Z" fill="white"/>
</svg>
