<svg width="48" height="48" viewBox="0 0 48 48" fill="none" xmlns="http://www.w3.org/2000/svg">
<g clip-path="url(#clip0_1_1808)">
<path d="M47 24C47 36.7025 36.7025 47 24 47C11.2975 47 1 36.7025 1 24C1 11.2975 11.2975 1 24 1C36.7025 1 47 11.2975 47 24Z" fill="#767DFF" stroke="#0E0637" stroke-width="2"/>
<path fill-rule="evenodd" clip-rule="evenodd" d="M20.655 9.75H27.345C27.5768 9.74988 27.8045 9.81152 28.0046 9.92858C28.2047 10.0456 28.37 10.2139 28.4835 10.416L38.8425 28.8945C38.9515 29.0893 39.0088 29.3088 39.0088 29.532C39.0088 29.7552 38.9515 29.9747 38.8425 30.1695L35.5275 36.0825C35.4143 36.2847 35.2493 36.4531 35.0495 36.5704C34.8497 36.6877 34.6222 36.7497 34.3905 36.75H13.6095C13.3775 36.75 13.1498 36.6881 12.9496 36.5708C12.7495 36.4535 12.5843 36.2849 12.471 36.0825L9.15749 30.1695C9.04844 29.9747 8.99118 29.7552 8.99118 29.532C8.99118 29.3088 9.04844 29.0893 9.15749 28.8945L19.5165 10.416C19.63 10.2139 19.7953 10.0456 19.9954 9.92858C20.1955 9.81152 20.4232 9.74988 20.655 9.75V9.75ZM24 17.1015L17.0205 29.532H30.9795L24 17.1015Z" fill="white"/>
</g>
<defs>
<clipPath id="clip0_1_1808">
<rect width="48" height="48" fill="white"/>
</clipPath>
</defs>
</svg>
