<svg width="9" height="9" viewBox="0 0 9 9" fill="none" xmlns="http://www.w3.org/2000/svg">
<path fill-rule="evenodd" clip-rule="evenodd" d="M4.75 7.44773C5.5987 7.44773 6.41263 7.11059 7.01274 6.51047C7.61286 5.91036 7.95 5.09642 7.95 4.24773C7.95 3.39904 7.61286 2.5851 7.01274 1.98499C6.41263 1.38487 5.5987 1.04773 4.75 1.04773C3.90131 1.04773 3.08738 1.38487 2.48726 1.98499C1.88715 2.5851 1.55 3.39904 1.55 4.24773C1.55 5.09642 1.88715 5.91036 2.48726 6.51047C3.08738 7.11059 3.90131 7.44773 4.75 7.44773ZM6.2328 3.96493L5.0328 2.76493C4.95779 2.68994 4.85607 2.64781 4.75 2.64781C4.64394 2.64781 4.54221 2.68994 4.4672 2.76493L3.2672 3.96493C3.19434 4.04037 3.15402 4.14141 3.15493 4.24629C3.15584 4.35117 3.19791 4.45149 3.27208 4.52566C3.34624 4.59982 3.44656 4.64189 3.55144 4.6428C3.65632 4.64371 3.75736 4.60339 3.8328 4.53053L4.35 4.01333V5.44773C4.35 5.55382 4.39215 5.65556 4.46716 5.73057C4.54218 5.80559 4.64392 5.84773 4.75 5.84773C4.85609 5.84773 4.95783 5.80559 5.03285 5.73057C5.10786 5.65556 5.15 5.55382 5.15 5.44773V4.01333L5.6672 4.53053C5.74264 4.60339 5.84368 4.64371 5.94856 4.6428C6.05344 4.64189 6.15377 4.59982 6.22793 4.52566C6.30209 4.45149 6.34416 4.35117 6.34507 4.24629C6.34598 4.14141 6.30567 4.04037 6.2328 3.96493Z" fill="#11CABE"/>
</svg>
