<svg width="16" height="17" viewBox="0 0 16 17" fill="none" xmlns="http://www.w3.org/2000/svg">
<path fill-rule="evenodd" clip-rule="evenodd" d="M8.00001 14.9C9.69739 14.9 11.3253 14.2257 12.5255 13.0255C13.7257 11.8253 14.4 10.1974 14.4 8.50001C14.4 6.80262 13.7257 5.17476 12.5255 3.97452C11.3253 2.77429 9.69739 2.10001 8.00001 2.10001C6.30262 2.10001 4.67476 2.77429 3.47452 3.97452C2.27429 5.17476 1.60001 6.80262 1.60001 8.50001C1.60001 10.1974 2.27429 11.8253 3.47452 13.0255C4.67476 14.2257 6.30262 14.9 8.00001 14.9ZM8.80001 6.10001C8.80001 5.88783 8.71572 5.68435 8.56569 5.53432C8.41566 5.38429 8.21218 5.30001 8.00001 5.30001C7.78783 5.30001 7.58435 5.38429 7.43432 5.53432C7.28429 5.68435 7.20001 5.88783 7.20001 6.10001V8.96881L6.16561 7.93441C6.01472 7.78868 5.81264 7.70804 5.60289 7.70987C5.39313 7.71169 5.19248 7.79583 5.04415 7.94415C4.89582 8.09248 4.81169 8.29313 4.80987 8.50289C4.80804 8.71264 4.88868 8.91472 5.03441 9.06561L7.43441 11.4656C7.58443 11.6156 7.78787 11.6998 8.00001 11.6998C8.21214 11.6998 8.41558 11.6156 8.56561 11.4656L10.9656 9.06561C11.1113 8.91472 11.192 8.71264 11.1901 8.50289C11.1883 8.29313 11.1042 8.09248 10.9559 7.94415C10.8075 7.79583 10.6069 7.71169 10.3971 7.70987C10.1874 7.70804 9.98529 7.78868 9.83441 7.93441L8.80001 8.96881V6.10001Z" fill="#FB3766"/>
</svg>
