<svg width="16" height="17" viewBox="0 0 16 17" fill="none" xmlns="http://www.w3.org/2000/svg">
<path fill-rule="evenodd" clip-rule="evenodd" d="M7.99998 14.9C9.69736 14.9 11.3252 14.2257 12.5255 13.0255C13.7257 11.8252 14.4 10.1974 14.4 8.49998C14.4 6.80259 13.7257 5.17473 12.5255 3.97449C11.3252 2.77426 9.69736 2.09998 7.99998 2.09998C6.30259 2.09998 4.67473 2.77426 3.47449 3.97449C2.27426 5.17473 1.59998 6.80259 1.59998 8.49998C1.59998 10.1974 2.27426 11.8252 3.47449 13.0255C4.67473 14.2257 6.30259 14.9 7.99998 14.9ZM10.9656 7.93438L8.56558 5.53438C8.41555 5.3844 8.21211 5.30015 7.99998 5.30015C7.78784 5.30015 7.5844 5.3844 7.43438 5.53438L5.03438 7.93438C4.88865 8.08526 4.80801 8.28734 4.80984 8.4971C4.81166 8.70685 4.89579 8.9075 5.04412 9.05583C5.19245 9.20416 5.3931 9.28829 5.60285 9.29011C5.81261 9.29194 6.01469 9.2113 6.16558 9.06558L7.19998 8.03118V10.9C7.19998 11.1121 7.28426 11.3156 7.43429 11.4657C7.58432 11.6157 7.7878 11.7 7.99998 11.7C8.21215 11.7 8.41563 11.6157 8.56566 11.4657C8.71569 11.3156 8.79998 11.1121 8.79998 10.9V8.03118L9.83438 9.06558C9.98526 9.2113 10.1873 9.29194 10.3971 9.29011C10.6069 9.28829 10.8075 9.20416 10.9558 9.05583C11.1042 8.9075 11.1883 8.70685 11.1901 8.4971C11.1919 8.28734 11.1113 8.08526 10.9656 7.93438Z" fill="#11CABE"/>
</svg>
