<svg width="9" height="9" viewBox="0 0 9 9" fill="none" xmlns="http://www.w3.org/2000/svg">
<path fill-rule="evenodd" clip-rule="evenodd" d="M4.25 7.94773C5.09869 7.94773 5.91263 7.61059 6.51274 7.01047C7.11286 6.41036 7.45 5.59642 7.45 4.74773C7.45 3.89904 7.11286 3.0851 6.51274 2.48499C5.91263 1.88487 5.09869 1.54773 4.25 1.54773C3.40131 1.54773 2.58737 1.88487 1.98726 2.48499C1.38714 3.0851 1.05 3.89904 1.05 4.74773C1.05 5.59642 1.38714 6.41036 1.98726 7.01047C2.58737 7.61059 3.40131 7.94773 4.25 7.94773ZM5.7328 4.46493L4.5328 3.26493C4.45779 3.18994 4.35607 3.14781 4.25 3.14781C4.14393 3.14781 4.04221 3.18994 3.9672 3.26493L2.7672 4.46493C2.69434 4.54037 2.65402 4.64141 2.65493 4.74629C2.65584 4.85117 2.69791 4.95149 2.77207 5.02566C2.84624 5.09982 2.94656 5.14189 3.05144 5.1428C3.15632 5.14371 3.25736 5.10339 3.3328 5.03053L3.85 4.51333V5.94773C3.85 6.05382 3.89214 6.15556 3.96716 6.23057C4.04217 6.30559 4.14391 6.34773 4.25 6.34773C4.35609 6.34773 4.45783 6.30559 4.53284 6.23057C4.60786 6.15556 4.65 6.05382 4.65 5.94773V4.51333L5.1672 5.03053C5.24264 5.10339 5.34368 5.14371 5.44856 5.1428C5.55344 5.14189 5.65376 5.09982 5.72793 5.02566C5.80209 4.95149 5.84416 4.85117 5.84507 4.74629C5.84598 4.64141 5.80566 4.54037 5.7328 4.46493Z" fill="#11CABE"/>
</svg>
