<svg width="16" height="17" viewBox="0 0 16 17" fill="none" xmlns="http://www.w3.org/2000/svg">
<path fill-rule="evenodd" clip-rule="evenodd" d="M8.00001 14.9C9.69739 14.9 11.3253 14.2257 12.5255 13.0255C13.7257 11.8252 14.4 10.1974 14.4 8.49998C14.4 6.80259 13.7257 5.17473 12.5255 3.97449C11.3253 2.77426 9.69739 2.09998 8.00001 2.09998C6.30262 2.09998 4.67476 2.77426 3.47452 3.97449C2.27429 5.17473 1.60001 6.80259 1.60001 8.49998C1.60001 10.1974 2.27429 11.8252 3.47452 13.0255C4.67476 14.2257 6.30262 14.9 8.00001 14.9ZM10.9656 7.93438L8.56561 5.53438C8.41558 5.3844 8.21214 5.30015 8.00001 5.30015C7.78787 5.30015 7.58443 5.3844 7.43441 5.53438L5.03441 7.93438C4.88868 8.08526 4.80804 8.28734 4.80987 8.4971C4.81169 8.70685 4.89582 8.9075 5.04415 9.05583C5.19248 9.20416 5.39313 9.28829 5.60289 9.29011C5.81264 9.29194 6.01472 9.2113 6.16561 9.06558L7.20001 8.03118V10.9C7.20001 11.1121 7.28429 11.3156 7.43432 11.4657C7.58435 11.6157 7.78783 11.7 8.00001 11.7C8.21218 11.7 8.41566 11.6157 8.56569 11.4657C8.71572 11.3156 8.80001 11.1121 8.80001 10.9V8.03118L9.83441 9.06558C9.98529 9.2113 10.1874 9.29194 10.3971 9.29011C10.6069 9.28829 10.8075 9.20416 10.9559 9.05583C11.1042 8.9075 11.1883 8.70685 11.1901 8.4971C11.192 8.28734 11.1113 8.08526 10.9656 7.93438Z" fill="#11CABE"/>
</svg>
