<svg width="66" height="27" viewBox="0 0 66 27" fill="none" xmlns="http://www.w3.org/2000/svg">
<path d="M2.16367 23.94L1 22.9735V25.5C1 26.0523 1.44772 26.5 2 26.5H64C64.5523 26.5 65 26.0523 65 25.5V14.8918L64.0245 17.8088C63.956 18.0137 63.8229 18.1909 63.6452 18.3139L63.1135 18.682C62.5523 19.0704 61.7756 18.7951 61.5844 18.1399L60.4533 14.2647C60.3288 13.8381 59.9378 13.5449 59.4934 13.5449H59.2811C58.8284 13.5449 58.4321 13.2407 58.3151 12.8033L57.8371 11.0165C57.6794 10.4273 56.9011 10.2985 56.5621 10.8054C56.4304 11.0022 56.2092 11.1204 55.9724 11.1204H53.3255C53.0489 11.1204 52.7846 11.0058 52.5955 10.8039L52.4123 10.6082C51.9223 10.0849 51.057 10.232 50.7675 10.8879L50.1313 12.329C49.7518 13.1887 48.5034 13.0976 48.2528 12.1919L46.929 7.40909C46.8699 7.19549 46.7415 7.00759 46.564 6.87489L45.0366 5.73305C44.8071 5.5615 44.515 5.49662 44.2345 5.55488L42.8013 5.85249C42.3728 5.94146 41.9363 5.74157 41.7238 5.35909L41.0008 4.05788C40.6216 3.37541 39.6415 3.37135 39.2566 4.05065L38.1075 6.07887C37.8655 6.50598 37.2449 6.49031 37.0248 6.05152C36.7953 5.59404 36.1397 5.60186 35.9211 6.06469L35.3129 7.35289C34.9347 8.15396 33.7787 8.10402 33.4709 7.27332L32.7266 5.26387C32.3946 4.36777 31.1152 4.40319 30.8333 5.31628L29.7582 8.79905C29.6288 9.21819 29.2413 9.50408 28.8027 9.50408H28.7528C28.3199 9.50408 27.9362 9.78256 27.802 10.1941L25.2728 17.9509C25.2354 18.0657 25.1775 18.1727 25.1019 18.2669L22.486 21.5261C22.1025 22.0039 21.3834 22.0276 20.9692 21.5761L20.4868 21.0502C20.2093 20.7477 19.7752 20.6455 19.3919 20.7925L17.7632 21.4168C17.4254 21.5463 17.1839 21.8482 17.1316 22.2062L16.9086 23.7342C16.8369 24.2255 16.4156 24.5898 15.9191 24.5898H14.9517C14.6113 24.5898 14.2942 24.4166 14.1102 24.1301L12.6117 21.7963C12.2287 21.1998 11.3638 21.1801 10.9541 21.7586L9.27988 24.1228C8.91278 24.6411 8.16171 24.6903 7.73011 24.2243L6.11214 22.4772C5.69714 22.0291 4.98088 22.0544 4.59858 22.5308L3.58249 23.7967C3.23268 24.2326 2.59357 24.2971 2.16367 23.94Z" fill="url(#paint0_linear_1_1321)"/>
<path d="M1 22.9735L2.94595 24.5898L5.32432 21.6265L8.56757 25.1286L11.8108 20.549L14.4054 24.5898H16.7838L17.2162 21.6265L20.027 20.549L21.7568 22.4347L25.2162 18.1245L28.027 9.50408H29.5405L31.7027 2.5L34.2973 9.50408L36.4595 4.92449L37.5405 7.07959L40.1351 2.5L42.0811 6.00204L44.6757 5.46326L46.8378 7.07959L49 14.8918L51.3784 9.50408L52.8919 11.1204H56.3514L57.4324 9.50408L58.5135 13.5449H60.2432L61.973 19.4714L63.9189 18.1245L64.619 14.8429" stroke="#11CABE" stroke-linecap="round"/>
<defs>
<linearGradient id="paint0_linear_1_1321" x1="33" y1="2.5" x2="33" y2="26.5" gradientUnits="userSpaceOnUse">
<stop offset="0.260417" stop-color="#BCFBFF" stop-opacity="0.4"/>
<stop offset="1" stop-color="#BCFBFF" stop-opacity="0"/>
</linearGradient>
</defs>
</svg>
