<svg width="56" height="85" viewBox="0 0 56 85" fill="none" xmlns="http://www.w3.org/2000/svg">
<path d="M28 0.5C35.607 0.5 42.4488 2.26538 47.3565 5.07227C52.2956 7.89706 55.0874 11.6486 55.0874 15.5729C55.0874 19.4972 52.2956 23.2488 47.3565 26.0737C42.4488 28.8804 35.607 30.6458 28 30.6458C20.393 30.6458 13.5512 28.8804 8.64349 26.0737C3.70443 23.2488 0.912598 19.4972 0.912598 15.5729C0.912598 11.6486 3.70443 7.89706 8.64349 5.07227C13.5512 2.26538 20.393 0.5 28 0.5Z" fill="url(#paint0_linear_1_1419)" stroke="url(#paint1_linear_1_1419)"/>
<path fill-rule="evenodd" clip-rule="evenodd" d="M18.4029 9.72155L15.0863 11.2701L14.8851 11.5101C14.6271 11.8178 14.45 12.2659 14.4315 12.658C14.4199 12.903 14.4526 13.0512 14.5891 13.3733C14.7419 13.7337 14.7969 13.809 15.0767 14.0406C15.4127 14.3188 15.7974 14.4571 16.2227 14.4528C16.4369 14.4506 16.7069 14.3417 18.7772 13.4218C21.0792 12.3991 21.094 12.3933 21.414 12.3901C21.8366 12.386 22.3995 12.6245 22.7093 12.9389C23.0199 13.2542 23.2436 13.82 23.2221 14.2356C23.1855 14.9395 22.8826 15.422 22.1885 15.882C21.544 16.3091 21.2866 16.6402 21.1776 17.182C20.9558 18.2853 21.753 19.2701 22.8761 19.2804L23.2148 19.2836L24.9409 18.5243L26.6671 17.7651L26.9832 17.7814C27.3698 17.8013 27.8717 18.0037 28.1539 18.2536C28.3143 18.3956 28.4091 18.5422 28.5517 18.8685C28.7848 19.4021 28.7926 19.7813 28.5803 20.2686C28.3938 20.6966 28.1851 20.9512 27.8255 21.1891C27.2727 21.5548 26.9474 22.1221 26.9348 22.742C26.9266 23.1449 27.2147 23.8091 27.5123 24.0737C27.9645 24.4758 28.5816 24.6101 29.1996 24.4408C29.6031 24.3303 31.639 23.3928 32.3859 22.9734C33.4947 22.3509 34.3406 21.6593 35.0815 20.7694C37.8619 17.4304 38.0432 12.7934 35.5238 9.46433C33.9768 7.4202 31.6105 6.1748 28.9749 6.01769C27.9256 5.95512 26.9861 6.07519 25.7386 6.43128C24.9469 6.65726 25.4267 6.44204 18.4029 9.72155ZM20.8681 24.4914C20.4546 24.8252 20.2051 25.3079 20.1769 25.8284C20.1576 26.1842 20.1771 26.2928 20.3204 26.6239C20.4643 26.9566 20.5286 27.0424 20.8052 27.2714C21.8969 28.1753 23.607 27.3999 23.7257 25.9471C23.7486 25.6672 23.7268 25.5716 23.5442 25.1495C23.3616 24.7275 23.3071 24.6468 23.0896 24.4769C22.7914 24.2439 22.3458 24.0953 21.9655 24.1021C21.6628 24.1075 21.0934 24.3095 20.8681 24.4914Z" fill="white"/>
<path fill-rule="evenodd" clip-rule="evenodd" d="M0.00548753 20.9113H0V26.1447C3.04353e-06 28.2928 0.724238 30.4194 2.13138 32.4038C3.5385 34.388 5.60094 36.1908 8.201 37.7097C10.801 39.2283 13.8877 40.4331 17.2848 41.2551C20.6819 42.0772 24.3229 42.5 27.9999 42.5C31.677 42.5 35.318 42.0772 38.7152 41.2551C42.1121 40.4331 45.1988 39.2283 47.7989 37.7097C50.399 36.1908 52.4613 34.388 53.8686 32.4038C55.2756 30.4194 56 28.2928 56 26.1447V20.9113H55.9945C55.6963 29.7927 43.2768 36.235 27.9999 36.235C12.7231 36.235 0.30379 29.7927 0.00548753 20.9113Z" fill="white"/>
<path fill-rule="evenodd" clip-rule="evenodd" d="M0.00548753 31.5H0V36.7334C3.04353e-06 38.8815 0.724238 41.0081 2.13138 42.9926C3.5385 44.9767 5.60094 46.7796 8.201 48.2985C10.801 49.8171 13.8877 51.0219 17.2848 51.8439C20.6819 52.6659 24.3229 53.0888 27.9999 53.0888C31.677 53.0888 35.318 52.6659 38.7152 51.8439C42.1121 51.0219 45.1988 49.8171 47.7989 48.2985C50.399 46.7796 52.4613 44.9767 53.8686 42.9926C55.2756 41.0081 56 38.8815 56 36.7334V31.5H55.9945C55.6963 40.3815 43.2768 46.8237 27.9999 46.8237C12.7231 46.8237 0.30379 40.3815 0.00548753 31.5Z" fill="#B7B4C3"/>
<path fill-rule="evenodd" clip-rule="evenodd" d="M0.00548753 41.5H0V46.7334C3.04353e-06 48.8815 0.724238 51.0081 2.13138 52.9926C3.5385 54.9767 5.60094 56.7796 8.201 58.2985C10.801 59.8171 13.8877 61.0219 17.2848 61.8439C20.6819 62.6659 24.3229 63.0888 27.9999 63.0888C31.677 63.0888 35.318 62.6659 38.7152 61.8439C42.1121 61.0219 45.1988 59.8171 47.7989 58.2985C50.399 56.7796 52.4613 54.9767 53.8686 52.9926C55.2756 51.0081 56 48.8815 56 46.7334V41.5H55.9945C55.6963 50.3815 43.2768 56.8237 27.9999 56.8237C12.7231 56.8237 0.30379 50.3815 0.00548753 41.5Z" fill="#86829B"/>
<path fill-rule="evenodd" clip-rule="evenodd" d="M0.00548753 52.5H0V57.7334C3.04353e-06 59.8815 0.724238 62.0081 2.13138 63.9926C3.5385 65.9767 5.60094 67.7796 8.201 69.2985C10.801 70.8171 13.8877 72.0219 17.2848 72.8439C20.6819 73.6659 24.3229 74.0888 27.9999 74.0888C31.677 74.0888 35.318 73.6659 38.7152 72.8439C42.1121 72.0219 45.1988 70.8171 47.7989 69.2985C50.399 67.7796 52.4613 65.9767 53.8686 63.9926C55.2756 62.0081 56 59.8815 56 57.7334V52.5H55.9945C55.6963 61.3815 43.2768 67.8237 27.9999 67.8237C12.7231 67.8237 0.30379 61.3815 0.00548753 52.5Z" fill="#565173"/>
<path fill-rule="evenodd" clip-rule="evenodd" d="M0.00548753 62.5H0V67.7334C3.04353e-06 69.8815 0.724238 72.0081 2.13138 73.9926C3.5385 75.9767 5.60094 77.7796 8.201 79.2985C10.801 80.8171 13.8877 82.0219 17.2848 82.8439C20.6819 83.6659 24.3229 84.0888 27.9999 84.0888C31.677 84.0888 35.318 83.6659 38.7152 82.8439C42.1121 82.0219 45.1988 80.8171 47.7989 79.2985C50.399 77.7796 52.4613 75.9767 53.8686 73.9926C55.2756 72.0081 56 69.8815 56 67.7334V62.5H55.9945C55.6963 71.3815 43.2768 77.8237 27.9999 77.8237C12.7231 77.8237 0.30379 71.3815 0.00548753 62.5Z" fill="#565173"/>
<defs>
<linearGradient id="paint0_linear_1_1419" x1="56.8149" y1="1.63989" x2="-0.629445" y2="21.9625" gradientUnits="userSpaceOnUse">
<stop stop-color="#3567E8"/>
<stop offset="1" stop-color="#6C89EF"/>
</linearGradient>
<linearGradient id="paint1_linear_1_1419" x1="12.5234" y1="-0.442057" x2="48.2076" y2="25.1563" gradientUnits="userSpaceOnUse">
<stop stop-color="#A3B5F5"/>
<stop offset="1" stop-color="#7FADF1"/>
</linearGradient>
</defs>
</svg>
