<svg width="94" height="94" viewBox="0 0 94 94" fill="none" xmlns="http://www.w3.org/2000/svg">
<g filter="url(#filter0_d_1_1855)">
<path d="M75.6 37.8C75.6 53.7058 62.7058 66.6 46.8 66.6C30.8942 66.6 18 53.7058 18 37.8C18 21.8942 30.8942 9 46.8 9C62.7058 9 75.6 21.8942 75.6 37.8Z" fill="white"/>
</g>
<path d="M47.1839 67.3678C63.3017 67.3678 76.3678 54.3017 76.3678 38.1839C76.3678 22.0661 63.3017 9 47.1839 9C31.0661 9 18 22.0661 18 38.1839C18 54.3017 31.0661 67.3678 47.1839 67.3678Z" fill="#26A17B"/>
<path fill-rule="evenodd" clip-rule="evenodd" d="M50.6897 40.7065V40.7028C50.4891 40.7174 49.4549 40.7794 47.1475 40.7794C45.3053 40.7794 44.0084 40.7247 43.5524 40.7028V40.7083C36.4607 40.3964 31.1675 39.1616 31.1675 37.6841C31.1675 36.2085 36.4607 34.9737 43.5524 34.6563V39.4789C44.0157 39.5118 45.3436 39.5902 47.1785 39.5902C49.3801 39.5902 50.4836 39.499 50.6897 39.4808V34.6599C57.7668 34.9755 63.0473 36.2103 63.0473 37.6841C63.0473 39.1616 57.7668 40.3927 50.6897 40.7065ZM50.6897 34.1583V29.8428H60.5648V23.2618H33.6773V29.8428H43.5524V34.1565C35.5269 34.525 29.4913 36.1155 29.4913 38.0197C29.4913 39.924 35.5269 41.5127 43.5524 41.883V55.7125H50.6897V41.8793C58.7025 41.5109 64.7235 39.9222 64.7235 38.0197C64.7235 36.1173 58.7025 34.5286 50.6897 34.1583Z" fill="white"/>
<defs>
<filter id="filter0_d_1_1855" x="0" y="0" width="93.6" height="93.6" filterUnits="userSpaceOnUse" color-interpolation-filters="sRGB">
<feFlood flood-opacity="0" result="BackgroundImageFix"/>
<feColorMatrix in="SourceAlpha" type="matrix" values="0 0 0 0 0 0 0 0 0 0 0 0 0 0 0 0 0 0 127 0" result="hardAlpha"/>
<feOffset dy="9"/>
<feGaussianBlur stdDeviation="9"/>
<feColorMatrix type="matrix" values="0 0 0 0 0.160784 0 0 0 0 0.160784 0 0 0 0 0.164706 0 0 0 0.07 0"/>
<feBlend mode="normal" in2="BackgroundImageFix" result="effect1_dropShadow_1_1855"/>
<feBlend mode="normal" in="SourceGraphic" in2="effect1_dropShadow_1_1855" result="shape"/>
</filter>
</defs>
</svg>
