<svg width="78" height="26" viewBox="0 0 78 26" fill="none" xmlns="http://www.w3.org/2000/svg">
<path d="M74.9223 23.0404H77V24.5C77 25.0523 76.5523 25.5 76 25.5L2 25.5C1.44772 25.5 1 25.0523 1 24.5V7.32857L3.42595 13.8156C3.78162 14.7666 5.16427 14.6436 5.34638 13.6446L5.80276 11.1413C5.9334 10.4248 6.76173 10.0838 7.35896 10.5007L7.71835 10.7516C8.203 11.09 8.87376 10.9364 9.16293 10.4209L9.80961 9.26809C10.1385 8.68177 10.9407 8.58051 11.405 9.06669L15.056 12.8899C15.353 13.2009 15.8155 13.2872 16.2047 13.1043L16.2291 13.0928C16.7428 12.8513 17.3543 13.0852 17.5755 13.608L19.1831 17.4064C19.537 18.2427 20.7324 18.2123 21.0435 17.3592L22.4536 13.4919C22.4734 13.4378 22.4977 13.3855 22.5265 13.3355L24.4875 9.92936C24.8486 9.30217 25.7357 9.25435 26.1621 9.83909L26.5216 10.3321C26.8441 10.7743 27.4621 10.8751 27.9084 10.5583L29.8093 9.20903C30.3906 8.79637 31.2047 9.10719 31.3631 9.80228L32.1468 13.2412C32.1724 13.3533 32.217 13.4601 32.2788 13.557L33.0608 14.7824C33.4266 15.3557 34.2456 15.4046 34.6769 14.8788L35.6327 13.7137C35.7926 13.5188 36.0202 13.3915 36.27 13.3573L37.1003 13.2434C37.4843 13.1908 37.8033 12.9209 37.9189 12.551L39.9044 6.19814C40.1482 5.41798 41.1815 5.25727 41.6507 5.92651C42.1221 6.59872 43.1607 6.43296 43.3994 5.64742L43.8903 4.03185C44.1582 3.15016 45.3748 3.06934 45.757 3.90784L47.1649 6.99672C47.3273 7.35321 47.683 7.58199 48.0748 7.58199H50.5517C50.9082 7.58199 51.2378 7.77181 51.4167 8.08022L52.0814 9.2262C52.3769 9.73556 53.1125 9.73556 53.4079 9.2262C53.7541 8.62936 54.6509 8.75778 54.8157 9.4278L58.1732 23.0776C58.2462 23.3742 58.4508 23.6213 58.7286 23.7482L60.1503 24.3981C60.653 24.6279 61.2467 24.4063 61.476 23.9034L62.5612 21.5223C62.8452 20.8992 63.6573 20.7394 64.1562 21.2085L66.9018 23.7902C67.4207 24.2781 68.2688 24.0826 68.5217 23.4168L69.102 21.8888C69.1312 21.8121 69.1696 21.7393 69.2165 21.672L71.0581 19.0301C71.5193 18.3685 72.5337 18.4969 72.8154 19.2525L73.9854 22.3898C74.1312 22.781 74.5048 23.0404 74.9223 23.0404Z" fill="url(#paint0_linear_1_1351)"/>
<path d="M77 23.0404H74.228L72.1489 17.4652L69.1459 21.7733L67.9909 24.8143L63.1398 20.2528L61.0608 24.8143L58.2888 23.5472L54.3617 7.58199L52.7447 10.3696L51.1277 7.58199H47.4316L44.6596 1.5L42.8116 7.58199L40.5015 4.28758L37.7295 13.1571L35.8815 13.4106L33.8024 15.9447L32.1854 13.4106L31.0304 8.34224L27.1033 11.1298L25.2553 8.59565L22.4833 13.4106L20.1733 19.746L17.1702 12.6503L15.5532 13.4106L10.4711 8.08882L8.6231 11.3832L6.08207 9.60932L4.69605 17.2118L1.45239 7.32857" stroke="#FA2256" stroke-linecap="round"/>
<defs>
<linearGradient id="paint0_linear_1_1351" x1="39" y1="1.5" x2="39" y2="25.5" gradientUnits="userSpaceOnUse">
<stop offset="0.104167" stop-color="#FCE2ED"/>
<stop offset="1" stop-color="#FCE2ED" stop-opacity="0"/>
</linearGradient>
</defs>
</svg>
