<svg width="33" height="14" viewBox="0 0 33 14" fill="none" xmlns="http://www.w3.org/2000/svg">
<path d="M1.33183 11.9678L0.75 11.4845V12.7477C0.75 13.0239 0.973858 13.2477 1.25 13.2477H32.25C32.5261 13.2477 32.75 13.0239 32.75 12.7477V7.44366L32.2622 8.90216C32.228 9.00461 32.1615 9.09322 32.0726 9.1547L31.8067 9.33875C31.5262 9.53295 31.1378 9.39527 31.0422 9.06772L30.4767 7.1301C30.4144 6.91681 30.2189 6.77019 29.9967 6.77019H29.8906C29.6642 6.77019 29.4661 6.6181 29.4076 6.39942L29.1685 5.50597C29.0897 5.2114 28.7006 5.14698 28.531 5.40044C28.4652 5.49886 28.3546 5.55795 28.2362 5.55795H26.9127C26.7744 5.55795 26.6423 5.50066 26.5478 5.3997L26.4561 5.30185C26.2111 5.0402 25.7785 5.11377 25.6338 5.44168L25.3157 6.16224C25.1259 6.59211 24.5017 6.54656 24.3764 6.09369L23.7145 3.70229C23.685 3.59549 23.6208 3.50154 23.532 3.43519L22.7683 2.86427C22.6535 2.77849 22.5075 2.74605 22.3673 2.77518L21.6506 2.92399C21.4364 2.96847 21.2182 2.86852 21.1119 2.67729L20.7504 2.02668C20.5608 1.68545 20.0707 1.68341 19.8783 2.02307L19.3038 3.03718C19.1828 3.25073 18.8725 3.2429 18.7624 3.0235C18.6477 2.79476 18.3198 2.79867 18.2106 3.03009L17.9065 3.67418C17.7174 4.07472 17.1393 4.04975 16.9855 3.6344L16.6133 2.62968C16.4473 2.18163 15.8076 2.19933 15.6667 2.65588L15.1291 4.39727C15.0644 4.60684 14.8707 4.74978 14.6513 4.74978H14.6264C14.41 4.74978 14.2181 4.88902 14.151 5.09478L12.8864 8.9732C12.8677 9.03058 12.8388 9.0841 12.801 9.13117L11.493 10.7608C11.3013 10.9997 10.9417 11.0116 10.7346 10.7858L10.4934 10.5229C10.3547 10.3716 10.1376 10.3205 9.94596 10.394L9.1316 10.7062C8.96269 10.7709 8.84194 10.9218 8.81581 11.1008L8.70432 11.8648C8.66847 12.1105 8.45782 12.2926 8.20956 12.2926H7.72585C7.55563 12.2926 7.39709 12.206 7.30512 12.0628L6.55585 10.8959C6.36434 10.5976 5.93191 10.5878 5.72707 10.8771L4.88994 12.0591C4.70639 12.3183 4.33085 12.3429 4.11506 12.1099L3.30607 11.2364C3.09857 11.0123 2.74044 11.025 2.54929 11.2631L2.04124 11.8961C1.86634 12.114 1.54678 12.1463 1.33183 11.9678Z" fill="url(#paint0_linear_1_1533)"/>
<path d="M0.75 11.4845L1.72297 12.2926L2.91216 10.811L4.53378 12.562L6.15541 10.2722L7.4527 12.2926H8.64189L8.85811 10.811L10.2635 10.2722L11.1284 11.2151L12.8581 9.05999L14.2635 4.74978H15.0203L16.1014 1.24774L17.3986 4.74978L18.4797 2.45999L19.0203 3.53754L20.3176 1.24774L21.2905 2.99876L22.5878 2.72937L23.6689 3.53754L24.75 7.44366L25.9392 4.74978L26.6959 5.55795H28.4257L28.9662 4.74978L29.5068 6.77019H30.3716L31.2365 9.73346L32.2095 9.05999L32.5595 7.41917" stroke="#11CABE" stroke-width="0.5" stroke-linecap="round"/>
<defs>
<linearGradient id="paint0_linear_1_1533" x1="16.75" y1="1.24774" x2="16.75" y2="13.2477" gradientUnits="userSpaceOnUse">
<stop offset="0.260417" stop-color="#BCFBFF" stop-opacity="0.4"/>
<stop offset="1" stop-color="#BCFBFF" stop-opacity="0"/>
</linearGradient>
</defs>
</svg>
