<svg width="288" height="199" viewBox="0 0 288 199" fill="none" xmlns="http://www.w3.org/2000/svg">
<ellipse cx="9" cy="77.9962" rx="9" ry="8.95809" fill="#14B082" fill-opacity="0.7"/>
<path d="M13.5387 74.6261C13.4715 74.5586 13.3914 74.505 13.3032 74.4684C13.215 74.4318 13.1204 74.413 13.0249 74.413C12.9293 74.413 12.8347 74.4318 12.7465 74.4684C12.6583 74.505 12.5783 74.5586 12.511 74.6261L7.11897 80.0009L4.8536 77.7386C4.78374 77.6714 4.70127 77.6186 4.61091 77.5831C4.52054 77.5477 4.42405 77.5303 4.32693 77.532C4.22982 77.5336 4.13398 77.5543 4.0449 77.5929C3.95582 77.6314 3.87524 77.6871 3.80776 77.7566C3.74028 77.8261 3.68722 77.9082 3.6516 77.9982C3.61599 78.0881 3.59853 78.1842 3.60021 78.2809C3.60189 78.3776 3.62268 78.473 3.6614 78.5616C3.70011 78.6503 3.756 78.7305 3.82586 78.7977L6.6051 81.5644C6.67238 81.6319 6.75243 81.6855 6.84063 81.7221C6.92883 81.7587 7.02343 81.7775 7.11897 81.7775C7.21452 81.7775 7.30912 81.7587 7.39731 81.7221C7.48551 81.6855 7.56556 81.6319 7.63284 81.5644L13.5387 75.6852C13.6122 75.6177 13.6708 75.5358 13.7109 75.4447C13.751 75.3536 13.7717 75.2551 13.7717 75.1556C13.7717 75.0561 13.751 74.9577 13.7109 74.8666C13.6708 74.7754 13.6122 74.6936 13.5387 74.6261Z" fill="white"/>
<rect x="27" y="74.413" width="180" height="7.16742" rx="3.58371" fill="#E2ECF4"/>
<ellipse cx="9" cy="109.349" rx="9" ry="8.95809" fill="#14B082" fill-opacity="0.7"/>
<path d="M13.5387 105.979C13.4715 105.911 13.3914 105.858 13.3032 105.821C13.215 105.784 13.1204 105.766 13.0249 105.766C12.9293 105.766 12.8347 105.784 12.7465 105.821C12.6583 105.858 12.5783 105.911 12.511 105.979L7.11897 111.354L4.8536 109.091C4.78374 109.024 4.70127 108.971 4.61091 108.936C4.52054 108.9 4.42405 108.883 4.32693 108.885C4.22982 108.886 4.13398 108.907 4.0449 108.945C3.95582 108.984 3.87524 109.04 3.80776 109.109C3.74028 109.179 3.68722 109.261 3.6516 109.351C3.61599 109.441 3.59853 109.537 3.60021 109.633C3.60189 109.73 3.62268 109.826 3.6614 109.914C3.70011 110.003 3.756 110.083 3.82586 110.15L6.6051 112.917C6.67238 112.985 6.75243 113.038 6.84063 113.075C6.92883 113.111 7.02343 113.13 7.11897 113.13C7.21452 113.13 7.30912 113.111 7.39731 113.075C7.48551 113.038 7.56556 112.985 7.63284 112.917L13.5387 107.038C13.6122 106.97 13.6708 106.888 13.7109 106.797C13.751 106.706 13.7717 106.608 13.7717 106.508C13.7717 106.409 13.751 106.31 13.7109 106.219C13.6708 106.128 13.6122 106.046 13.5387 105.979Z" fill="white"/>
<rect x="27" y="105.766" width="180" height="7.16742" rx="3.58371" fill="#E2ECF4"/>
<ellipse cx="9" cy="140.702" rx="9" ry="8.95809" fill="#DFDFDF"/>
<path d="M13.5387 137.332C13.4715 137.265 13.3914 137.211 13.3032 137.175C13.215 137.138 13.1204 137.119 13.0249 137.119C12.9293 137.119 12.8347 137.138 12.7465 137.175C12.6583 137.211 12.5783 137.265 12.511 137.332L7.11897 142.707L4.8536 140.445C4.78374 140.378 4.70127 140.325 4.61091 140.289C4.52054 140.254 4.42405 140.236 4.32693 140.238C4.22982 140.24 4.13398 140.261 4.0449 140.299C3.95582 140.338 3.87524 140.393 3.80776 140.463C3.74028 140.532 3.68722 140.614 3.6516 140.704C3.61599 140.794 3.59853 140.89 3.60021 140.987C3.60189 141.084 3.62268 141.179 3.6614 141.268C3.70011 141.356 3.756 141.437 3.82586 141.504L6.6051 144.271C6.67238 144.338 6.75243 144.392 6.84063 144.428C6.92883 144.465 7.02343 144.484 7.11897 144.484C7.21452 144.484 7.30912 144.465 7.39731 144.428C7.48551 144.392 7.56556 144.338 7.63284 144.271L13.5387 138.391C13.6122 138.324 13.6708 138.242 13.7109 138.151C13.751 138.06 13.7717 137.961 13.7717 137.862C13.7717 137.762 13.751 137.664 13.7109 137.573C13.6708 137.482 13.6122 137.4 13.5387 137.332Z" fill="white"/>
<rect x="27" y="137.12" width="180" height="7.16742" rx="3.58371" fill="#E2ECF4"/>
<rect y="0.957214" width="288" height="7.16742" rx="3.58371" fill="#E2ECF4"/>
<rect y="19.7695" width="288" height="7.16742" rx="3.58371" fill="#E2ECF4"/>
<rect y="38.581" width="216" height="7.16742" rx="3.58371" fill="#E2ECF4"/>
<rect y="191.765" width="288" height="7.16742" rx="3.58371" fill="#E2ECF4"/>
<rect y="172.953" width="216" height="7.16742" rx="3.58371" fill="#E2ECF4"/>
</svg>
