<svg width="40" height="41" viewBox="0 0 40 41" fill="none" xmlns="http://www.w3.org/2000/svg">
<g clip-path="url(#clip0_1_1309)">
<path d="M20 0.5C31.0457 0.5 40 9.45429 40 20.5C40 31.5457 31.0457 40.5 20 40.5C8.95429 40.5 0 31.5457 0 20.5C0 9.45429 8.95429 0.5 20 0.5Z" fill="#1A82FF"/>
<path d="M27.3119 28.7354C25.5805 30.8566 23.1454 31.9172 20.0068 31.9172C16.8681 31.9172 14.4327 30.8566 12.7005 28.7354C10.9679 26.6132 10.102 23.8699 10.1028 20.5057C10.1035 17.1415 10.969 14.3987 12.6993 12.2772C14.4308 10.1549 16.8662 9.09392 20.0056 9.0943C23.145 9.09468 25.5801 10.1556 27.3108 12.2772C29.0422 14.3983 29.9081 17.1412 29.9085 20.5057C29.9088 23.8703 29.0433 26.6135 27.3119 28.7354Z" fill="white"/>
<path d="M19.9703 27.4817C20.7966 27.4817 21.4991 27.2566 22.0777 26.8063C22.6564 26.356 23.0754 25.7453 23.3349 24.9743C23.5939 24.2028 23.7768 23.4634 23.8834 22.756C23.9901 22.0486 24.0431 21.2985 24.0423 20.5057C24.0423 19.5297 23.9832 18.6562 23.8652 17.8851L16.7463 25.3034C17.4046 26.7548 18.4792 27.4809 19.9703 27.4817Z" fill="#1A82FF"/>
<path d="M20.0411 13.5297C19.2149 13.5297 18.5124 13.7549 17.9337 14.2051C17.355 14.6554 16.936 15.2661 16.6766 16.0371C16.416 16.8085 16.2331 17.5479 16.128 18.2553C16.0213 18.9627 15.9684 19.7128 15.9691 20.5056C15.9691 21.0278 15.9859 21.5208 16.0194 21.9844L22.8091 14.9103C22.1497 13.9903 21.227 13.5301 20.0411 13.5297Z" fill="#1A82FF"/>
<path d="M10.656 27.5777L9.78171 26.7389L16.4114 19.828L17.2857 20.6669L10.656 27.5777ZM23.1474 20.3663L22.2731 19.5274L28.9028 12.6166L29.7771 13.4554L23.1474 20.3663Z" fill="#1A82FF"/>
</g>
<defs>
<clipPath id="clip0_1_1309">
<rect width="40" height="40" fill="white" transform="translate(0 0.5)"/>
</clipPath>
</defs>
</svg>
