<svg width="21" height="21" viewBox="0 0 21 21" fill="none" xmlns="http://www.w3.org/2000/svg">
<g clip-path="url(#clip0_1_1541)">
<circle cx="10.75" cy="10.2477" r="10" fill="#1A82FF"/>
<path d="M10.9717 2.76904V2.77614C10.9788 2.81164 10.9788 2.85424 10.9788 2.89684V8.01584C10.9717 8.04424 10.9504 8.05134 10.9291 8.06554C10.78 8.13654 10.638 8.20044 10.4889 8.26433C10.283 8.35663 10.07 8.45603 9.86415 8.54833L9.11866 8.88912C8.91276 8.98142 8.70687 9.07372 8.50807 9.16602C8.26668 9.27961 8.01818 9.38611 7.77679 9.49971C7.57089 9.59201 7.365 9.69141 7.152 9.7837C6.9816 9.8618 6.81121 9.9328 6.64791 10.0109C6.63371 10.018 6.61951 10.0251 6.60531 10.0251C6.59821 10.0251 6.59821 10.0251 6.59111 10.018L6.78281 9.69851C7.152 9.08792 7.51409 8.48443 7.88329 7.87384C8.27378 7.22065 8.67137 6.56747 9.06186 5.91428C9.42395 5.31079 9.79315 4.7073 10.1552 4.10382C10.4179 3.66362 10.6877 3.22343 10.9504 2.78324C10.9575 2.76904 10.9646 2.76194 10.9646 2.74774H10.9717C10.9646 2.75484 10.9717 2.76194 10.9717 2.76904Z" fill="#F3F3F3"/>
<path d="M15.3304 10.018L15.3375 10.0251L14.2938 10.6428L11.0137 12.5811C10.9995 12.5882 10.9853 12.5953 10.9782 12.6024C10.9569 12.6024 10.9569 12.5811 10.9569 12.574V12.5101V8.12237C10.9569 8.10107 10.9569 8.07267 10.964 8.05137C10.9711 8.02297 10.9924 8.03007 11.0137 8.03717C11.106 8.07977 11.2054 8.12237 11.2977 8.16497C11.5746 8.29277 11.8514 8.42057 12.1283 8.54126C12.3697 8.64776 12.604 8.76136 12.8454 8.86786C13.0868 8.97435 13.3282 9.08795 13.5696 9.19445C13.7755 9.28675 13.9885 9.38615 14.1944 9.47844C14.4003 9.57074 14.6133 9.67014 14.8192 9.76244C14.9825 9.83344 15.1458 9.91154 15.3091 9.98253C15.3091 10.0038 15.3162 10.0109 15.3304 10.018Z" fill="#8A8DA7"/>
<path d="M10.9711 17.0114C10.9711 17.0185 10.964 17.0256 10.964 17.0327H10.9569C10.9569 17.0185 10.9427 17.0114 10.9356 16.9972C10.4954 16.3795 10.0552 15.7547 9.61506 15.137C9.16777 14.5051 8.71337 13.8661 8.26608 13.2342C7.83299 12.6237 7.3928 12.006 6.95971 11.3954C6.84611 11.2321 6.73251 11.0759 6.61891 10.9126C6.61181 10.8984 6.60471 10.8913 6.59052 10.87C6.61181 10.87 6.62601 10.8842 6.63311 10.8913C7.2508 11.2534 7.86139 11.6155 8.47908 11.9776C9.18906 12.3965 9.89195 12.8154 10.6019 13.2342L10.964 13.4472C10.9782 13.4614 10.9782 13.4756 10.9782 13.4898V16.912C10.9782 16.9475 10.9782 16.983 10.9711 17.0114Z" fill="#F3F3F3"/>
<path d="M6.58337 10.0322V10.0251C6.81057 9.92569 7.03067 9.81919 7.25786 9.7198C7.54896 9.5849 7.84005 9.4571 8.13114 9.3222C8.35124 9.22281 8.57843 9.11631 8.79853 9.01691C9.12512 8.86781 9.44462 8.72582 9.77121 8.57672C9.99131 8.47732 10.2114 8.37792 10.4386 8.27142C10.5948 8.20043 10.7581 8.12943 10.9143 8.05843C10.9285 8.05133 10.9498 8.04423 10.9569 8.03003C10.964 8.03003 10.964 8.03713 10.9569 8.04423V12.5526C10.9569 12.5739 10.9498 12.5952 10.964 12.6094C10.9498 12.6307 10.9356 12.6094 10.9285 12.6023C10.8646 12.5668 10.8007 12.5313 10.7368 12.4887C9.36652 11.6794 7.98915 10.8629 6.61887 10.0535C6.61177 10.0464 6.59757 10.0393 6.58337 10.0322Z" fill="#C5C8D9"/>
<path d="M15.3162 10.87H15.3233C15.3233 10.8842 15.3091 10.8984 15.302 10.9126C13.9957 12.7515 12.6893 14.5974 11.3829 16.4363C11.248 16.628 11.106 16.8197 10.9711 17.0114C10.964 17.0043 10.964 16.9972 10.964 16.9901V16.9475V13.504V13.4401C11.2622 13.2626 11.5533 13.0923 11.8515 12.9148C13.0017 12.2332 14.1519 11.5587 15.2949 10.8771C15.302 10.8842 15.3091 10.8771 15.3162 10.87Z" fill="#C5C8D9"/>
<path d="M10.964 8.04422V8.03002V7.98742V2.83292C10.964 2.81162 10.9569 2.79742 10.9711 2.77612C12.4124 5.16878 13.8537 7.55433 15.2878 9.94698C15.302 9.96828 15.3233 9.99668 15.3304 10.0251C15.231 9.98958 15.1387 9.93988 15.0464 9.89728C14.9328 9.84759 14.8121 9.79079 14.6985 9.74109C14.6275 9.70559 14.5494 9.67719 14.4784 9.64169C14.3577 9.58489 14.237 9.53519 14.1164 9.47839C14.0454 9.44999 13.9744 9.41449 13.9034 9.37899L13.4348 9.166C13.3567 9.1305 13.2786 9.095 13.1934 9.0595L12.8526 8.9104C12.7816 8.882 12.7106 8.84651 12.6396 8.81101L12.171 8.59801C12.0929 8.56251 12.0148 8.52701 11.9296 8.49151L11.5888 8.34241C11.5107 8.30692 11.4397 8.27142 11.3616 8.23592C11.2267 8.17202 11.0918 8.10812 10.9498 8.05132C10.9711 8.04422 10.964 8.04422 10.964 8.04422Z" fill="#C5C8D9"/>
</g>
<defs>
<clipPath id="clip0_1_1541">
<rect width="20" height="20" fill="white" transform="translate(0.75 0.247742)"/>
</clipPath>
</defs>
</svg>
