<svg width="40" height="41" viewBox="0 0 40 41" fill="none" xmlns="http://www.w3.org/2000/svg">
<g clip-path="url(#clip0_1_1343)">
<path d="M20 40.5C31.0457 40.5 40 31.5457 40 20.5C40 9.4543 31.0457 0.5 20 0.5C8.9543 0.5 0 9.4543 0 20.5C0 31.5457 8.9543 40.5 20 40.5Z" fill="#2770FD"/>
<path fill-rule="evenodd" clip-rule="evenodd" d="M17.2125 8.625H22.7875C22.9807 8.6249 23.1704 8.67627 23.3371 8.77381C23.5039 8.87136 23.6416 9.01156 23.7362 9.18L32.3687 24.5788C32.4596 24.7411 32.5073 24.924 32.5073 25.11C32.5073 25.296 32.4596 25.4789 32.3687 25.6413L29.6062 30.5688C29.5119 30.7372 29.3744 30.8776 29.2079 30.9753C29.0414 31.0731 28.8518 31.1248 28.6587 31.125H11.3412C11.1479 31.125 10.9581 31.0734 10.7914 30.9756C10.6246 30.8779 10.4869 30.7374 10.3925 30.5688L7.63124 25.6413C7.54036 25.4789 7.49265 25.296 7.49265 25.11C7.49265 24.924 7.54036 24.7411 7.63124 24.5788L16.2637 9.18C16.3583 9.01156 16.4961 8.87136 16.6628 8.77381C16.8296 8.67627 17.0193 8.6249 17.2125 8.625ZM20 14.7513L14.1837 25.11H25.8162L20 14.7513Z" fill="white"/>
</g>
<defs>
<clipPath id="clip0_1_1343">
<rect width="40" height="40" fill="white" transform="translate(0 0.5)"/>
</clipPath>
</defs>
</svg>
