<svg width="40" height="41" viewBox="0 0 40 41" fill="none" xmlns="http://www.w3.org/2000/svg">
<g clip-path="url(#clip0_1_1354)">
<path d="M39.9642 20.493C39.9642 31.4841 31.0547 40.3935 20.0637 40.3935C9.07303 40.3935 0.163177 31.4841 0.163177 20.493C0.163177 9.50218 9.07303 0.592529 20.0637 0.592529C31.0547 0.592529 39.9642 9.50218 39.9642 20.493Z" fill="#1BA27A"/>
<path d="M29.4036 10.6276H10.5598V15.1768H17.7071V21.8634H22.2563V15.1768H29.4036V10.6276Z" fill="white"/>
<path d="M20.0249 22.5756C14.1124 22.5756 9.31899 21.6399 9.31899 20.4855C9.31899 19.3312 14.1122 18.3953 20.0249 18.3953C25.9373 18.3953 30.7305 19.3312 30.7305 20.4855C30.7305 21.6399 25.9373 22.5756 20.0249 22.5756ZM32.0458 20.8339C32.0458 19.3454 26.6639 18.1388 20.0249 18.1388C13.3861 18.1388 8.00377 19.3454 8.00377 20.8339C8.00377 22.1448 12.1771 23.2369 17.7072 23.4789V33.0777H22.2561V23.4827C27.8288 23.2482 32.0458 22.1515 32.0458 20.8339Z" fill="white"/>
</g>
<defs>
<clipPath id="clip0_1_1354">
<rect width="40" height="40" fill="white" transform="translate(0 0.5)"/>
</clipPath>
</defs>
</svg>
