<svg width="21" height="21" viewBox="0 0 21 21" fill="none" xmlns="http://www.w3.org/2000/svg">
<g clip-path="url(#clip0_1_1525)">
<path d="M10.75 20.2477C16.2728 20.2477 20.75 15.7706 20.75 10.2477C20.75 4.72489 16.2728 0.247742 10.75 0.247742C5.22715 0.247742 0.75 4.72489 0.75 10.2477C0.75 15.7706 5.22715 20.2477 10.75 20.2477Z" fill="#2770FD"/>
<path fill-rule="evenodd" clip-rule="evenodd" d="M9.35625 4.31024H12.1437C12.2403 4.31019 12.3352 4.33588 12.4186 4.38465C12.502 4.43342 12.5708 4.50352 12.6181 4.58774L16.9344 12.2871C16.9798 12.3683 17.0037 12.4597 17.0037 12.5527C17.0037 12.6458 16.9798 12.7372 16.9344 12.8184L15.5531 15.2821C15.506 15.3664 15.4372 15.4365 15.354 15.4854C15.2707 15.5343 15.1759 15.5601 15.0794 15.5602H6.42063C6.32397 15.5602 6.22907 15.5345 6.14569 15.4856C6.06231 15.4367 5.99347 15.3665 5.94625 15.2821L4.56563 12.8184C4.52019 12.7372 4.49633 12.6458 4.49633 12.5527C4.49633 12.4597 4.52019 12.3683 4.56563 12.2871L8.88187 4.58774C8.92917 4.50352 8.99805 4.43342 9.08142 4.38465C9.1648 4.33588 9.25966 4.31019 9.35625 4.31024ZM10.75 7.37337L7.84188 12.5527H13.6581L10.75 7.37337Z" fill="white"/>
</g>
<defs>
<clipPath id="clip0_1_1525">
<rect width="20" height="20" fill="white" transform="translate(0.75 0.247742)"/>
</clipPath>
</defs>
</svg>
