<svg width="40" height="41" viewBox="0 0 40 41" fill="none" xmlns="http://www.w3.org/2000/svg">
<g clip-path="url(#clip0_1_1301)">
<path d="M39.4018 25.3367C36.7296 36.0567 25.8686 42.5732 15.1639 39.9009C4.44355 37.2287 -2.07301 26.3681 0.599335 15.6635C3.27152 4.94354 14.1168 -1.57302 24.8371 1.09932C35.5418 3.75588 42.0742 14.6165 39.4018 25.3367Z" fill="url(#paint0_linear_1_1301)"/>
<path d="M29.5227 18.0078C29.9133 15.3516 27.8977 13.9141 25.1165 12.9609L26.0227 9.35156L23.8352 8.80469L22.9602 12.3203C22.3821 12.1797 21.7883 12.0391 21.1946 11.9141L22.0696 8.38281L19.8821 7.83594L18.9915 11.4297C18.5071 11.3203 18.0383 11.2109 17.5852 11.1016V11.0859L14.554 10.3359L13.9758 12.6797C13.9758 12.6797 15.6008 13.0547 15.5696 13.0703C16.4602 13.2891 16.6165 13.8828 16.5852 14.3516L15.554 18.4609C15.6165 18.4766 15.6946 18.4922 15.7883 18.5391C15.7102 18.5234 15.6321 18.5078 15.554 18.4766L14.1165 24.2266C14.0071 24.4922 13.7258 24.8984 13.1165 24.7422C13.1321 24.7734 11.5227 24.3516 11.5227 24.3516L10.429 26.8672L13.2883 27.5859C13.8196 27.7266 14.3352 27.8516 14.8508 27.9922L13.9446 31.6328L16.1321 32.1797L17.0383 28.5703C17.6321 28.7266 18.2258 28.8828 18.7883 29.0234L17.8977 32.6172L20.0852 33.1641L20.9915 29.5234C24.7415 30.2266 27.554 29.9453 28.7258 26.5547C29.679 23.8359 28.679 22.2578 26.7102 21.2266C28.1633 20.8984 29.2415 19.9453 29.5227 18.0078ZM24.5071 25.0391C23.8352 27.7578 19.2415 26.2891 17.7571 25.9141L18.9602 21.0859C20.4446 21.4609 25.2258 22.1953 24.5071 25.0391ZM25.1946 17.9609C24.5696 20.4453 20.7571 19.1797 19.5227 18.8672L20.6165 14.4922C21.8508 14.8047 25.8352 15.3828 25.1946 17.9609Z" fill="white"/>
</g>
<defs>
<linearGradient id="paint0_linear_1_1301" x1="19.9893" y1="0.490522" x2="19.9893" y2="40.4961" gradientUnits="userSpaceOnUse">
<stop stop-color="#F9AA4B"/>
<stop offset="1" stop-color="#F7931A"/>
</linearGradient>
<clipPath id="clip0_1_1301">
<rect width="40" height="40" fill="white" transform="translate(0 0.5)"/>
</clipPath>
</defs>
</svg>
