<svg width="48" height="48" viewBox="0 0 48 48" fill="none" xmlns="http://www.w3.org/2000/svg">
<g clip-path="url(#clip0_1_1799)">
<circle cx="24" cy="24" r="23" fill="#25292C" stroke="#0E0637" stroke-width="2"/>
<path d="M33.8985 10H37.9454L29.5235 20.0694C26.4736 23.7141 21.5288 23.7141 18.4767 20.0694L10.0515 10H14.1017L20.5001 17.6492C21.4324 18.7587 22.6887 19.3806 23.9976 19.3806C25.3066 19.3806 26.5629 18.7587 27.4952 17.6492L33.8985 10Z" fill="white"/>
<path d="M14.0496 38H10L18.4766 27.8685C21.5265 24.2239 26.4713 24.2239 29.5234 27.8685L38 38H33.9531L27.5 30.2888C26.5678 29.1793 25.3114 28.5573 24.0025 28.5573C22.6935 28.5573 21.4372 29.1793 20.5049 30.2888L14.0496 38Z" fill="white"/>
</g>
<defs>
<clipPath id="clip0_1_1799">
<rect width="48" height="48" fill="white"/>
</clipPath>
</defs>
</svg>
