<svg width="40" height="41" viewBox="0 0 40 41" fill="none" xmlns="http://www.w3.org/2000/svg">
<g clip-path="url(#clip0_1_1329)">
<circle cx="20" cy="20.5" r="20" fill="#1A82FF"/>
<path d="M20.4435 5.5426V5.5568C20.4577 5.6278 20.4577 5.713 20.4577 5.79819V16.0362C20.4435 16.093 20.4009 16.1072 20.3583 16.1356C20.0601 16.2776 19.7761 16.4054 19.4779 16.5332C19.0661 16.7178 18.6401 16.9166 18.2283 17.1012L16.7374 17.7828C16.3256 17.9674 15.9138 18.152 15.5162 18.3365C15.0334 18.5637 14.5364 18.7767 14.0536 19.0039C13.6418 19.1885 13.23 19.3873 12.804 19.5719C12.4632 19.7281 12.1224 19.8701 11.7958 20.0263C11.7674 20.0405 11.739 20.0547 11.7107 20.0547C11.6965 20.0547 11.6965 20.0547 11.6823 20.0405L12.0656 19.4015C12.804 18.1804 13.5282 16.9734 14.2666 15.7522C15.0476 14.4458 15.8428 13.1395 16.6238 11.8331C17.3479 10.6261 18.0863 9.41912 18.8105 8.21215C19.3359 7.33176 19.8755 6.45138 20.4009 5.571C20.4151 5.5426 20.4293 5.5284 20.4293 5.5H20.4435C20.4293 5.5142 20.4435 5.5284 20.4435 5.5426Z" fill="#F3F3F3"/>
<path d="M29.1608 20.0405L29.175 20.0547L27.0876 21.2901L20.5273 25.1666C20.4989 25.1808 20.4705 25.195 20.4563 25.2092C20.4137 25.2092 20.4137 25.1666 20.4137 25.1524V25.0246V16.2492C20.4137 16.2066 20.4137 16.1498 20.4279 16.1072C20.4421 16.0504 20.4847 16.0646 20.5273 16.0788C20.7119 16.164 20.9107 16.2492 21.0953 16.3344C21.6491 16.59 22.2029 16.8456 22.7567 17.087C23.2395 17.3 23.7081 17.5272 24.1909 17.7402C24.6737 17.9532 25.1564 18.1804 25.6392 18.3934C26.051 18.578 26.477 18.7767 26.8888 18.9613C27.3006 19.1459 27.7266 19.3447 28.1384 19.5293C28.465 19.6713 28.7916 19.8275 29.1182 19.9695C29.1182 20.0121 29.1324 20.0263 29.1608 20.0405Z" fill="#8A8DA7"/>
<path d="M20.4423 34.0273C20.4423 34.0415 20.4281 34.0557 20.4281 34.0699H20.4139C20.4139 34.0415 20.3855 34.0273 20.3713 33.9989C19.4909 32.7635 18.6105 31.5139 17.7301 30.2785C16.8355 29.0148 15.9267 27.7368 15.0322 26.473C14.166 25.2518 13.2856 24.0165 12.4194 22.7953C12.1922 22.4687 11.965 22.1563 11.7378 21.8297C11.7236 21.8013 11.7094 21.7871 11.681 21.7445C11.7236 21.7445 11.752 21.7729 11.7662 21.7871C13.0016 22.5113 14.2228 23.2355 15.4582 23.9597C16.8781 24.7974 18.2839 25.6352 19.7039 26.473L20.4281 26.899C20.4565 26.9274 20.4565 26.9558 20.4565 26.9842V33.8285C20.4565 33.8995 20.4565 33.9705 20.4423 34.0273Z" fill="#F3F3F3"/>
<path d="M11.6668 20.069V20.0548C12.1212 19.856 12.5613 19.643 13.0157 19.4442C13.5979 19.1744 14.1801 18.9188 14.7623 18.649C15.2025 18.4502 15.6569 18.2372 16.0971 18.0384C16.7503 17.7402 17.3893 17.4562 18.0424 17.158C18.4826 16.9592 18.9228 16.7604 19.3772 16.5474C19.6896 16.4054 20.0162 16.2634 20.3286 16.1214C20.357 16.1072 20.3996 16.093 20.4138 16.0646C20.428 16.0646 20.428 16.0788 20.4138 16.093V25.1099C20.4138 25.1525 20.3996 25.1951 20.428 25.2235C20.3996 25.2661 20.3712 25.2235 20.357 25.2093C20.2292 25.1383 20.1014 25.0673 19.9736 24.9821C17.2331 23.3633 14.4783 21.7303 11.7378 20.1116C11.7236 20.0974 11.6952 20.0832 11.6668 20.069Z" fill="#C5C8D9"/>
<path d="M29.1325 21.7445H29.1467C29.1467 21.7729 29.1183 21.8013 29.1041 21.8297C26.4913 25.5074 23.8786 29.1994 21.2658 32.8771C20.996 33.2605 20.712 33.6439 20.4422 34.0273C20.428 34.0131 20.428 33.9989 20.428 33.9847V33.8995V27.0126V26.8848C21.0244 26.5298 21.6066 26.189 22.203 25.834C24.5034 24.4709 26.8037 23.1219 29.0899 21.7587C29.1041 21.7729 29.1183 21.7587 29.1325 21.7445Z" fill="#C5C8D9"/>
<path d="M20.428 16.093V16.0646V15.9794V5.67036C20.428 5.62776 20.4138 5.59936 20.4422 5.55676C23.3248 10.3421 26.2073 15.1132 29.0757 19.8985C29.1041 19.9411 29.1467 19.9979 29.1609 20.0547C28.9621 19.9837 28.7775 19.8843 28.5929 19.7991C28.3657 19.6997 28.1243 19.5861 27.8971 19.4867C27.7551 19.4157 27.5989 19.3589 27.4569 19.2879C27.2155 19.1743 26.9741 19.0749 26.7327 18.9613C26.5907 18.9045 26.4487 18.8335 26.3067 18.7625L25.3695 18.3365C25.2133 18.2655 25.0572 18.1945 24.8868 18.1235L24.2052 17.8253C24.0632 17.7685 23.9212 17.6975 23.7792 17.6265L22.842 17.2005C22.6858 17.1295 22.5296 17.0585 22.3592 16.9875L21.6776 16.6893C21.5214 16.6183 21.3794 16.5473 21.2232 16.4764C20.9534 16.3486 20.6836 16.2208 20.3996 16.1072C20.4422 16.093 20.428 16.093 20.428 16.093Z" fill="#C5C8D9"/>
</g>
<defs>
<clipPath id="clip0_1_1329">
<rect width="40" height="40" fill="white" transform="translate(0 0.5)"/>
</clipPath>
</defs>
</svg>
