<svg width="21" height="21" viewBox="0 0 21 21" fill="none" xmlns="http://www.w3.org/2000/svg">
<g clip-path="url(#clip0_1_1557)">
<path d="M10.75 0.247742C16.2729 0.247742 20.75 4.72488 20.75 10.2477C20.75 15.7706 16.2729 20.2477 10.75 20.2477C5.22714 20.2477 0.75 15.7706 0.75 10.2477C0.75 4.72488 5.22714 0.247742 10.75 0.247742Z" fill="#1A82FF"/>
<path d="M14.4059 14.3654C13.5402 15.426 12.3227 15.9563 10.7534 15.9563C9.18404 15.9563 7.96633 15.426 7.10023 14.3654C6.23395 13.3043 5.801 11.9327 5.80138 10.2506C5.80176 8.56848 6.23452 7.19705 7.09966 6.13629C7.96538 5.07515 9.18309 4.54467 10.7528 4.54486C12.3225 4.54505 13.54 5.07553 14.4054 6.13629C15.2711 7.19686 15.704 8.56829 15.7042 10.2506C15.7044 11.9329 15.2717 13.3045 14.4059 14.3654Z" fill="white"/>
<path d="M10.7351 13.7386C11.1483 13.7386 11.4995 13.626 11.7889 13.4009C12.0782 13.1757 12.2877 12.8704 12.4174 12.4849C12.547 12.0992 12.6384 11.7295 12.6917 11.3757C12.7451 11.022 12.7715 10.647 12.7711 10.2506C12.7711 9.76259 12.7416 9.32583 12.6826 8.94031L9.12315 12.6495C9.45229 13.3752 9.98962 13.7382 10.7351 13.7386Z" fill="#1A82FF"/>
<path d="M10.7706 6.76257C10.3574 6.76257 10.0062 6.87514 9.71685 7.10028C9.42752 7.32542 9.218 7.63074 9.08828 8.01626C8.958 8.40196 8.86657 8.77167 8.814 9.12537C8.76066 9.47908 8.73419 9.85412 8.73457 10.2505C8.73457 10.5116 8.74295 10.7581 8.75971 10.9899L12.1546 7.45284C11.8249 6.99285 11.3635 6.76276 10.7706 6.76257Z" fill="#1A82FF"/>
<path d="M6.078 13.7866L5.64085 13.3672L8.95571 9.91174L9.39285 10.3312L6.078 13.7866ZM12.3237 10.1809L11.8866 9.76146L15.2014 6.30603L15.6386 6.72546L12.3237 10.1809Z" fill="#1A82FF"/>
</g>
<defs>
<clipPath id="clip0_1_1557">
<rect width="20" height="20" fill="white" transform="translate(0.75 0.247742)"/>
</clipPath>
</defs>
</svg>
