<svg width="50" height="50" viewBox="0 0 50 50" fill="none" xmlns="http://www.w3.org/2000/svg">
<circle cx="25" cy="25" r="24" fill="#454545" stroke="white" stroke-width="2"/>
<path fill-rule="evenodd" clip-rule="evenodd" d="M34.2676 18.9888C35.4331 20.7769 36.0527 22.8657 36.0508 25C36.0523 27.1346 35.4322 29.2233 34.2661 31.0112L38.6 35.3451L35.3451 38.6L31.0112 34.2662C29.2795 35.3919 27.2183 36.0508 25 36.0508C22.7817 36.0508 20.7205 35.3919 18.9888 34.2662L14.6549 38.6L11.4 35.3451L15.7339 31.0112C14.6096 29.2795 13.9492 27.2183 13.9492 25C13.9492 22.7817 14.6081 20.7206 15.7339 18.9888L11.4 14.655L14.6549 11.4L18.9888 15.7324C20.7205 14.6081 22.7817 13.9493 25 13.9493C27.2183 13.9493 29.2795 14.6081 31.0112 15.7339L35.3451 11.4L38.6 14.655L34.2676 18.9888ZM25 18.2C21.2509 18.2 18.2 21.251 18.2 25C18.2042 28.7538 21.2462 31.7959 25 31.8C25.9555 31.7999 26.9001 31.597 27.7714 31.2046L23.2834 26.7166L26.7166 23.2819L31.2046 27.7699C31.5839 26.9222 31.8 25.9868 31.8 25C31.8 21.251 28.7491 18.2 25 18.2Z" fill="white"/>
</svg>
