<svg width="50" height="50" viewBox="0 0 50 50" fill="none" xmlns="http://www.w3.org/2000/svg">
<circle cx="25" cy="25" r="24" fill="url(#paint0_linear_1_1810)" stroke="white" stroke-width="2"/>
<path fill-rule="evenodd" clip-rule="evenodd" d="M24.131 9.65815C22.7375 9.81874 21.4418 10.4546 20.4622 11.4585C19.7267 12.1868 19.03 12.9345 18.2847 13.67C17.9117 14.0528 17.5346 14.425 17.1575 14.8029C16.7805 15.1807 16.3646 15.5821 15.9729 15.9786C15.5813 16.3751 15.256 16.723 14.8935 17.0912C14.3271 17.6576 13.7606 18.224 13.1942 18.7961C12.7597 19.2452 12.3349 19.7089 11.9052 20.1571C11.6519 20.425 11.3793 20.6734 11.1406 20.955C10.1554 22.1569 9.61703 23.6629 9.61688 25.2169C9.61688 25.3083 9.61688 25.4022 9.62255 25.4928C9.64269 26.3851 9.87691 27.2596 10.3055 28.0425C10.5495 28.5156 10.832 28.9679 11.1503 29.3946C11.3606 29.6908 11.5136 29.6859 11.7903 29.4569C11.8432 29.413 11.8927 29.3651 11.9384 29.3137C12.2111 29.0265 12.4781 28.74 12.7557 28.4536C13.1473 28.0425 13.5486 27.6322 13.9403 27.2163C14.3319 26.8004 14.7567 26.3424 15.1678 25.9128C15.3636 25.7024 15.5724 25.5082 15.7698 25.301C16.1898 24.8568 16.6008 24.3988 17.0208 23.9594C17.4408 23.52 17.8664 23.109 18.2774 22.6793C18.6885 22.2496 19.1942 21.7237 19.6571 21.2463C20.1199 20.7689 20.5124 20.3675 20.942 19.9281C21.5012 19.3496 22.0457 18.7573 22.5992 18.1795C22.9431 17.8259 23.2967 17.4869 23.6406 17.1381C24.118 16.6607 24.5623 16.1833 25.0308 15.7059C25.4993 15.2285 25.8472 14.908 26.2486 14.497C27.1457 13.5907 28.0414 12.679 28.9358 11.762C28.9936 11.7051 29.0476 11.6445 29.0977 11.5807C29.3178 11.3032 29.3364 11.2417 29.0645 11.0459C28.6494 10.7188 28.2048 10.4309 27.7366 10.1857C26.9091 9.79871 26.0066 9.59817 25.0931 9.59827H25.0478C24.7426 9.59833 24.4378 9.61752 24.135 9.65572L24.1302 9.65086L24.131 9.65815ZM32.0358 15.5376H31.9783C31.185 15.5379 30.432 15.8874 29.9198 16.4932C29.8745 16.5433 29.8267 16.5912 29.7766 16.6364L28.3152 18.0695C27.8378 18.5477 27.3215 19.068 26.8198 19.5697C26.4047 19.9848 25.9888 20.391 25.5786 20.8069C25.1683 21.2228 24.7281 21.6857 24.2839 22.1202C23.8397 22.5547 23.3671 23.0103 22.9083 23.4577L21.2795 25.1004L18.2515 28.1291C16.9137 29.4723 15.5778 30.8128 14.2437 32.1507C13.9864 32.4039 13.9815 32.4371 14.2437 32.709C14.8838 33.3563 15.5335 33.9988 16.1542 34.651C16.5382 35.058 17.0449 35.328 17.5969 35.4197C18.1177 35.5245 18.6557 35.5065 19.1683 35.3671C19.5524 35.2721 19.9069 35.0833 20.2 34.8177L21.786 33.2859C22.1582 32.9283 22.5361 32.5747 22.9035 32.2113C23.639 31.4831 24.3648 30.75 25.1004 30.0266C25.6975 29.4391 26.3093 28.8565 26.9153 28.2691L29.4019 25.8456C30.1755 25.0858 30.9539 24.3219 31.7372 23.5621C31.8436 23.4039 32.0291 23.318 32.2186 23.3393C32.408 23.3606 32.5699 23.4854 32.6386 23.6633C33.0367 24.2447 33.2497 24.933 33.2495 25.6376C33.2494 25.7582 33.2432 25.8786 33.2309 25.9985C33.1667 26.709 32.8737 27.3794 32.3958 27.909C31.8221 28.5256 31.2112 29.1082 30.6157 29.7005C30.1909 30.1205 29.7563 30.5315 29.3307 30.9563C28.7813 31.5009 28.2416 32.0552 27.6921 32.5998C27.6112 32.6904 27.5352 32.7859 27.4494 32.8716L26.9097 33.4308C26.5051 33.8354 26.0932 34.2286 25.6959 34.634C25.2986 35.0394 24.8422 35.5136 24.4174 35.9562C24.3794 35.9991 24.3365 36.0274 24.2985 36.0654C23.8203 36.5097 23.3809 36.9555 22.9269 37.403C22.7125 37.6134 22.507 37.8278 22.2966 38.0382C21.9341 38.4064 21.561 38.7664 21.2123 39.1419C20.9979 39.366 20.9979 39.5044 21.2511 39.6816C21.667 40.0008 22.1096 40.2834 22.5741 40.5264C23.7296 41.0489 25.0102 41.2311 26.2656 41.0515C27.5116 40.9036 28.6806 40.371 29.6099 39.5279C30.3163 38.9072 30.9474 38.2097 31.6061 37.5414C32.0835 37.0631 32.5617 36.5525 33.0723 36.0606L34.4528 34.6704C34.8735 34.2456 35.2886 33.82 35.7143 33.4C36.1399 32.9801 36.6691 32.4784 37.1465 32.005C37.6239 31.5316 38.1021 31.0502 38.5795 30.5436C38.9602 30.156 39.3118 29.7409 39.6314 29.3016C40.2274 28.4012 40.5994 27.3713 40.7165 26.2979C40.7813 25.7648 40.7813 25.2257 40.7165 24.6925C40.5745 23.7438 40.2307 22.8366 39.7083 22.032C39.3327 21.4627 38.8832 20.9457 38.3716 20.4946C37.0486 19.1813 35.7296 17.8583 34.4358 16.5159C33.8654 15.8808 33.0521 15.5178 32.1984 15.5174H32.1806L32.0374 15.5368L32.0358 15.5376Z" fill="white"/>
<defs>
<linearGradient id="paint0_linear_1_1810" x1="-8.90711" y1="30.3294" x2="29.6114" y2="56.6842" gradientUnits="userSpaceOnUse">
<stop stop-color="#FF3B3B"/>
<stop offset="1" stop-color="#FF9914"/>
</linearGradient>
</defs>
</svg>
