<svg width="13" height="19" viewBox="0 0 13 19" fill="none" xmlns="http://www.w3.org/2000/svg">
<path d="M5.11781 1.25643C5.11781 0.563601 5.67953 0.00195312 6.37246 0.00195312C7.06538 0.00195312 7.6271 0.563601 7.6271 1.25643V2.18633C8.73173 2.34843 9.60845 2.71182 10.2572 3.2765C10.7946 3.74089 11.1823 4.29641 11.4204 4.94307C11.7145 5.74195 11.0154 6.47809 10.1648 6.51544C9.38202 6.54982 8.77577 5.93363 8.30443 5.30778C8.21074 5.18339 8.10552 5.0758 7.98874 4.98498C7.58284 4.65769 6.97072 4.49404 6.15237 4.49404C5.30784 4.49404 4.64661 4.66751 4.16869 5.01444C3.86101 5.237 3.70715 5.53484 3.70715 5.90796C3.70715 6.24834 3.85118 6.53964 4.13924 6.78183C4.50585 7.08949 5.39622 7.41024 6.81033 7.74409C8.22443 8.07793 9.26865 8.42486 9.94296 8.78489C10.6238 9.13837 11.1541 9.62603 11.5338 10.2479C11.9201 10.8632 12.1132 11.6258 12.1132 12.5357C12.1132 13.3605 11.8841 14.1329 11.4258 14.8529C10.9675 15.573 10.3194 16.1098 9.48142 16.4632C8.94713 16.6844 8.32904 16.8351 7.6271 16.9153V17.5647C7.6271 18.2575 7.06538 18.8192 6.37246 18.8192C5.67953 18.8192 5.11781 18.2575 5.11781 17.5647V16.9121C3.88564 16.7598 2.89822 16.3647 2.15556 15.7268C1.49909 15.1585 1.02051 14.4168 0.719845 13.5017C0.464153 12.7234 1.0776 11.9796 1.89305 11.9003C2.65148 11.8266 3.29692 12.3723 3.64427 13.0504C3.81219 13.3782 4.01974 13.6485 4.26691 13.8612C4.79064 14.3064 5.49442 14.5289 6.37824 14.5289C7.31442 14.5289 8.01821 14.3326 8.48957 13.9398C8.96749 13.5405 9.20645 13.0757 9.20645 12.5455C9.20645 12.2051 9.10497 11.9171 8.90202 11.6815C8.70562 11.4393 8.35864 11.2298 7.86109 11.053C7.52065 10.9352 6.74485 10.7258 5.5337 10.4246C3.97557 10.0384 2.88226 9.56385 2.25377 9.0009C1.36995 8.20885 0.928047 7.24332 0.928047 6.10433C0.928047 5.37119 1.13427 4.68715 1.54672 4.05219C1.96571 3.41069 2.56474 2.92302 3.3438 2.58918C3.86464 2.36786 4.45598 2.21989 5.11781 2.1453V1.25643Z" fill="#12141D"/>
</svg>
